<?xml version="1.0" encoding="UTF-8" standalone="no"?>
<!-- Created with Inkscape (http://www.inkscape.org/) -->

<svg
   xmlns:dc="http://purl.org/dc/elements/1.1/"
   xmlns:cc="http://creativecommons.org/ns#"
   xmlns:rdf="http://www.w3.org/1999/02/22-rdf-syntax-ns#"
   xmlns:svg="http://www.w3.org/2000/svg"
   xmlns="http://www.w3.org/2000/svg"
   xmlns:sodipodi="http://sodipodi.sourceforge.net/DTD/sodipodi-0.dtd"
   xmlns:inkscape="http://www.inkscape.org/namespaces/inkscape"
   width="900"
   height="900"
   viewBox="0 0 900.00002 900.00002"
   id="svg2"
   version="1.1"
   inkscape:version="0.91 r13725"
   inkscape:export-filename="/home/michael/nate-homejs-windows.png"
   inkscape:export-xdpi="124.255"
   inkscape:export-ydpi="124.255"
   sodipodi:docname="nate-homejs-neg.svg">
  <defs
     id="defs4" />
  <sodipodi:namedview
     id="base"
     pagecolor="#ffffff"
     bordercolor="#666666"
     borderopacity="1.0"
     inkscape:pageopacity="0"
     inkscape:pageshadow="2"
     inkscape:zoom="0.5"
     inkscape:cx="-24.883676"
     inkscape:cy="498.85958"
     inkscape:document-units="px"
     inkscape:current-layer="g10176"
     showgrid="false"
     inkscape:snap-bbox="true"
     inkscape:object-paths="false"
     inkscape:snap-intersection-paths="true"
     inkscape:object-nodes="false"
     inkscape:snap-smooth-nodes="false"
     inkscape:snap-midpoints="false"
     inkscape:snap-bbox-midpoints="false"
     inkscape:snap-bbox-edge-midpoints="false"
     inkscape:bbox-nodes="false"
     inkscape:bbox-paths="true"
     inkscape:snap-object-midpoints="true"
     inkscape:snap-others="false"
     inkscape:snap-grids="true"
     units="px"
     inkscape:snap-center="false"
     inkscape:snap-nodes="false"
     inkscape:snap-page="true"
     inkscape:window-width="1920"
     inkscape:window-height="1004"
     inkscape:window-x="0"
     inkscape:window-y="468"
     inkscape:window-maximized="1"
     inkscape:snap-global="true" />
  <metadata
     id="metadata7">
    <rdf:RDF>
      <cc:Work
         rdf:about="">
        <dc:format>image/svg+xml</dc:format>
        <dc:type
           rdf:resource="http://purl.org/dc/dcmitype/StillImage" />
        <dc:title />
      </cc:Work>
    </rdf:RDF>
  </metadata>
  <g
     inkscape:label="Layer 1"
     inkscape:groupmode="layer"
     id="layer1"
     transform="translate(0,-152.36202)" />
  <g
     transform="translate(0,-152.36202)"
     id="g10176"
     inkscape:groupmode="layer"
     inkscape:label="Layer 1 copy">
    <path
       d="m 470.36719,293.51241 a 5.0005,5.0005 0 0 0 -0.99024,0.13281 5.0005,5.0005 0 0 0 -0.47851,0.14063 5.0005,5.0005 0 0 0 -1.32227,0.69531 5.0005,5.0005 0 0 0 -0.38867,0.31641 5.0005,5.0005 0 0 0 -0.39844,0.40234 l -279.45117,325.8457 a 5.0005,5.0005 0 0 0 -0.56055,0.82618 5.0005,5.0005 0 0 0 -0.21484,0.45117 5.0005,5.0005 0 0 0 -0.0898,0.25 5.0005,5.0005 0 0 0 -0.29883,1.16211 5.0005,5.0005 0 0 0 -0.041,0.56445 l 0,259.67773 a 5.0005,5.0005 0 0 0 0.0312,0.49805 5.0005,5.0005 0 0 0 0.21289,0.97656 5.0005,5.0005 0 0 0 0.40235,0.91407 5.0005,5.0005 0 0 0 0.70508,0.94921 5.0005,5.0005 0 0 0 0.0371,0.0449 5.0005,5.0005 0 0 0 0.0996,0.0977 5.0005,5.0005 0 0 0 0.11914,0.11719 5.0005,5.0005 0 0 0 0.13868,0.13672 5.0005,5.0005 0 0 0 1.25195,0.81641 5.0005,5.0005 0 0 0 0.94531,0.32031 5.0005,5.0005 0 0 0 0.49219,0.0879 5.0005,5.0005 0 0 0 0.56445,0.041 l 173.79688,0 a 5.0005,5.0005 0 0 0 0.49804,-0.0332 5.0005,5.0005 0 0 0 0.49415,-0.082 5.0005,5.0005 0 0 0 1.81835,-0.79883 5.0005,5.0005 0 0 0 0.75586,-0.65429 5.0005,5.0005 0 0 0 0.32422,-0.37891 5.0005,5.0005 0 0 0 0.52735,-0.84766 5.0005,5.0005 0 0 0 0.19726,-0.45898 5.0005,5.0005 0 0 0 0.25391,-0.9668 5.0005,5.0005 0 0 0 0.0547,-0.7793 l 0.0762,0 0,-267.05078 c 0.008,-0.5666 0.0471,-1.13275 0.11914,-1.69531 0.2552,-1.99082 0.90764,-3.91028 1.91797,-5.64453 0.25431,-0.43661 0.89882,-1.46155 1.64843,-2.29883 a 5.0005,5.0005 0 0 0 0.0274,-0.0332 5.0005,5.0005 0 0 0 0.0449,-0.0488 L 554.92383,395.60811 a 5.0005,5.0005 0 0 0 0.55859,-0.82812 5.0005,5.0005 0 0 0 0.5918,-2.50586 5.0005,5.0005 0 0 0 -1.1543,-3.17383 l -80.53906,-93.90039 a 5.0005,5.0005 0 0 0 -0.34961,-0.35742 5.0005,5.0005 0 0 0 -1.23437,-0.83985 5.0005,5.0005 0 0 0 -0.46094,-0.19531 5.0005,5.0005 0 0 0 -0.47852,-0.14648 5.0005,5.0005 0 0 0 -0.49023,-0.0977 5.0005,5.0005 0 0 0 -0.49805,-0.0488 5.0005,5.0005 0 0 0 -0.30078,0.002 5.0005,5.0005 0 0 0 -0.20117,-0.004 z"
       id="path10314"
       inkscape:connector-curvature="0" />
    <path
       d="m 577.25586,418.13155 a 5.0005,5.0005 0 0 0 -0.98828,0.13281 5.0005,5.0005 0 0 0 -0.48047,0.14063 5.0005,5.0005 0 0 0 -1.32227,0.69726 5.0005,5.0005 0 0 0 -0.38867,0.31446 5.0005,5.0005 0 0 0 -0.39648,0.40234 L 401.60547,620.45382 a 5.0005,5.0005 0 0 0 -1.67578,3.80273 l 0,259.7207 a 5.0005,5.0005 0 0 0 5.79687,5 l 44.875,0 a 5.0005,5.0005 0 0 0 0.49805,-0.0332 5.0005,5.0005 0 0 0 0.49414,-0.082 5.0005,5.0005 0 0 0 1.81836,-0.79883 5.0005,5.0005 0 0 0 0.54297,-0.45117 5.0005,5.0005 0 0 0 0.0312,-0.0254 5.0005,5.0005 0 0 0 0.0664,-0.0664 5.0005,5.0005 0 0 0 0.11524,-0.11132 5.0005,5.0005 0 0 0 0.0449,-0.0527 5.0005,5.0005 0 0 0 0.70899,-0.93359 5.0005,5.0005 0 0 0 0.23046,-0.44336 5.0005,5.0005 0 0 0 0.41016,-1.4375 5.0005,5.0005 0 0 0 0.0371,-0.49805 5.0005,5.0005 0 0 0 0.002,-0.0684 l -0.01,-212.66211 a 5.0005,5.0005 0 0 0 -2.125,-4.91601 c -0.0485,-0.0341 -0.095,-0.067 -0.14063,-0.0996 a 5.0005,5.0005 0 0 0 -0.004,-0.002 c -0.19619,-0.1399 -0.39106,-0.2831 -0.58399,-0.42773 -0.38562,-0.28909 -0.76337,-0.58754 -1.13476,-0.89453 -0.74264,-0.61387 -1.45561,-1.26226 -2.13672,-1.94336 -5.44856,-5.44856 -8.81836,-12.91186 -8.81836,-21.13477 0,-16.44581 13.50732,-29.95312 29.95312,-29.95312 1.02787,0 2.0427,0.0515 3.04297,0.1543 a 5.0005,5.0005 0 0 0 4.83789,-2.3379 L 608.50977,458.08858 a 5.0005,5.0005 0 0 0 0.0527,-6.44336 5.0005,5.0005 0 0 0 -0.0527,-0.0664 l -27.24024,-31.75977 a 5.0005,5.0005 0 0 0 -0.34961,-0.35742 5.0005,5.0005 0 0 0 -1.23437,-0.83984 5.0005,5.0005 0 0 0 -0.46094,-0.19336 5.0005,5.0005 0 0 0 -0.47852,-0.14844 5.0005,5.0005 0 0 0 -0.49023,-0.0977 5.0005,5.0005 0 0 0 -0.49805,-0.0488 5.0005,5.0005 0 0 0 -0.30078,0.002 5.0005,5.0005 0 0 0 -0.20117,-0.004 z"
       id="path10310"
       inkscape:connector-curvature="0" />
    <path
       d="m 630.8457,480.61007 a 5.0005,5.0005 0 0 0 -0.49804,0.041 5.0005,5.0005 0 0 0 -0.97266,0.23242 5.0005,5.0005 0 0 0 -0.46289,0.1875 5.0005,5.0005 0 0 0 -0.85938,0.50782 5.0005,5.0005 0 0 0 -0.38671,0.3164 5.0005,5.0005 0 0 0 -0.39844,0.40235 l -126.11133,147.0586 a 5.0005,5.0005 0 0 0 -1.54883,5.09961 c 0.12359,0.47596 0.23577,0.95679 0.33594,1.44141 0.40062,1.93825 0.61133,3.94231 0.61133,5.99804 0,8.22291 -3.3698,15.68621 -8.81836,21.13477 -0.68109,0.68108 -1.39409,1.3295 -2.13672,1.94336 -0.37135,0.30696 -0.74915,0.60544 -1.13477,0.89453 -0.19287,0.14459 -0.38769,0.28775 -0.58398,0.42773 -0.0487,0.0347 -0.0979,0.0693 -0.14648,0.10352 a 5.0005,5.0005 0 0 0 -2.12305,4.81641 l -0.01,212.75976 a 5.0005,5.0005 0 0 0 0.0312,0.5 5.0005,5.0005 0 0 0 0.39063,1.44336 5.0005,5.0005 0 0 0 0.79883,1.26172 5.0005,5.0005 0 0 0 0.13867,0.14258 5.0005,5.0005 0 0 0 0.0293,0.0371 5.0005,5.0005 0 0 0 0.0899,0.0898 5.0005,5.0005 0 0 0 0.12695,0.12305 5.0005,5.0005 0 0 0 0.14063,0.13867 5.0005,5.0005 0 0 0 1.25195,0.81641 5.0005,5.0005 0 0 0 0.94531,0.32031 5.0005,5.0005 0 0 0 0.49219,0.0879 5.0005,5.0005 0 0 0 0.56445,0.041 l 45.76953,0 a 5.0005,5.0005 0 0 0 0.49805,-0.0332 5.0005,5.0005 0 0 0 0.49414,-0.082 5.0005,5.0005 0 0 0 1.81836,-0.79883 5.0005,5.0005 0 0 0 0.54297,-0.44922 5.0005,5.0005 0 0 0 0.0312,-0.0273 5.0005,5.0005 0 0 0 0.0606,-0.0625 5.0005,5.0005 0 0 0 0.12109,-0.11523 5.0005,5.0005 0 0 0 0.0547,-0.0645 5.0005,5.0005 0 0 0 0.69922,-0.92187 5.0005,5.0005 0 0 0 0.23047,-0.44336 5.0005,5.0005 0 0 0 0.18359,-0.46485 5.0005,5.0005 0 0 0 0.13672,-0.48046 5.0005,5.0005 0 0 0 0.1289,-1.05665 l 0,-217.10351 c 0.008,-0.56664 0.0471,-1.13281 0.11914,-1.69531 0.22256,-1.73619 1.10807,-4.11916 2.16016,-5.92579 0,0 0.002,-0.002 0.002,-0.002 a 5.0005,5.0005 0 0 0 0.004,-0.006 c 0.0766,-0.13083 0.45001,-0.73095 0.73828,-1.13086 0.19012,-0.26373 0.45953,-0.59423 0.77344,-1.00586 L 662.06836,520.52413 a 5.0005,5.0005 0 0 0 0.55859,-0.82813 5.0005,5.0005 0 0 0 0.5918,-2.50586 5.0005,5.0005 0 0 0 -1.1543,-3.17187 l -27.20507,-31.7207 a 5.0005,5.0005 0 0 0 -0.34961,-0.35743 5.0005,5.0005 0 0 0 -1.23633,-0.84179 5.0005,5.0005 0 0 0 -0.46094,-0.19336 5.0005,5.0005 0 0 0 -0.47656,-0.14649 5.0005,5.0005 0 0 0 -0.49024,-0.0977 5.0005,5.0005 0 0 0 -0.49804,-0.0488 5.0005,5.0005 0 0 0 -0.30078,0.002 5.0005,5.0005 0 0 0 -0.20118,-0.004 z"
       id="path10306"
       inkscape:connector-curvature="0" />
    <path
       d="m 684.40039,543.04952 a 5.0005,5.0005 0 0 0 -0.98828,0.13281 5.0005,5.0005 0 0 0 -0.48047,0.14063 5.0005,5.0005 0 0 0 -1.32226,0.69531 5.0005,5.0005 0 0 0 -0.38672,0.31641 5.0005,5.0005 0 0 0 -0.39844,0.40234 L 572.57617,670.95186 a 5.0005,5.0005 0 0 0 -0.56055,0.82618 5.0005,5.0005 0 0 0 -0.21484,0.45117 5.0005,5.0005 0 0 0 -0.0898,0.25 5.0005,5.0005 0 0 0 -0.0742,0.18945 5.0005,5.0005 0 0 0 -0.13672,0.48047 5.0005,5.0005 0 0 0 -0.0879,0.49219 5.0005,5.0005 0 0 0 -0.041,0.56445 l 0,209.77148 a 5.0005,5.0005 0 0 0 0.0312,0.49805 5.0005,5.0005 0 0 0 0.39063,1.44336 5.0005,5.0005 0 0 0 0.79883,1.26172 5.0005,5.0005 0 0 0 0.13867,0.14258 5.0005,5.0005 0 0 0 0.0293,0.0371 5.0005,5.0005 0 0 0 0.0898,0.0898 5.0005,5.0005 0 0 0 0.12695,0.12305 5.0005,5.0005 0 0 0 0.14063,0.13867 5.0005,5.0005 0 0 0 1.25195,0.81641 5.0005,5.0005 0 0 0 0.94531,0.32031 5.0005,5.0005 0 0 0 0.49219,0.0879 5.0005,5.0005 0 0 0 0.56445,0.041 l 173.69922,0 a 5.0005,5.0005 0 0 0 0.49805,-0.0332 5.0005,5.0005 0 0 0 0.49414,-0.082 5.0005,5.0005 0 0 0 1.81836,-0.79883 5.0005,5.0005 0 0 0 0.54297,-0.44922 5.0005,5.0005 0 0 0 0.0977,-0.0937 5.0005,5.0005 0 0 0 0.11524,-0.11132 5.0005,5.0005 0 0 0 0.0449,-0.0527 5.0005,5.0005 0 0 0 0.12305,-0.125 5.0005,5.0005 0 0 0 0.31445,-0.39062 5.0005,5.0005 0 0 0 0.27148,-0.41797 5.0005,5.0005 0 0 0 0.41407,-0.90821 5.0005,5.0005 0 0 0 0.13672,-0.48046 5.0005,5.0005 0 0 0 0.1289,-1.05665 l 0,-259.67578 a 5.0005,5.0005 0 0 0 -0.24414,-1.47461 5.0005,5.0005 0 0 0 -0.0879,-0.23242 5.0005,5.0005 0 0 0 -0.87305,-1.54883 l -65.45117,-76.30859 a 5.0005,5.0005 0 0 0 -0.34961,-0.35742 5.0005,5.0005 0 0 0 -1.23437,-0.8418 5.0005,5.0005 0 0 0 -0.46094,-0.19336 5.0005,5.0005 0 0 0 -0.47852,-0.14648 5.0005,5.0005 0 0 0 -0.49023,-0.0977 5.0005,5.0005 0 0 0 -0.49609,-0.0488 5.0005,5.0005 0 0 0 -0.33789,0 5.0005,5.0005 0 0 0 -0.16602,-0.002 z"
       id="path10302"
       inkscape:connector-curvature="0" />
    <path
       d="m 470.60156,631.9421 c 5.75951,0 9.95313,4.19361 9.95313,9.95312 0,5.7595 -4.19362,9.95313 -9.95313,9.95313 -5.75949,0 -9.95312,-4.19363 -9.95312,-9.95313 0,-5.75951 4.19363,-9.95312 9.95312,-9.95312 z"
       id="path10178"
       inkscape:connector-curvature="0" />
  </g>
</svg>
