<?xml version="1.0" standalone="no"?>
<!DOCTYPE svg PUBLIC "-//W3C//DTD SVG 20010904//EN"
 "http://www.w3.org/TR/2001/REC-SVG-20010904/DTD/svg10.dtd">
<svg version="1.0" xmlns="http://www.w3.org/2000/svg"
 width="1345.000000pt" height="1345.000000pt" viewBox="0 0 1345.000000 1345.000000"
 preserveAspectRatio="xMidYMid meet">
<metadata>
Created by potrace 1.11, written by Peter Selinger 2001-2013
</metadata>
<g transform="translate(0.000000,1345.000000) scale(0.100000,-0.100000)"
fill="#000000" stroke="none">
<path d="M490 6630 l0 -6220 6220 0 6220 0 0 6220 0 6220 -6220 0 -6220 0 0
-6220z m12430 0 l0 -6210 -6205 0 -6205 0 0 6210 0 6210 6205 0 6205 0 0
-6210z"/>
<path d="M2480 12323 c-164 -18 -385 -84 -530 -159 -418 -215 -698 -584 -803
-1058 l-22 -101 0 -4280 0 -4280 22 -101 c138 -622 584 -1066 1201 -1196 l107
-23 4275 0 4275 0 101 22 c620 138 1059 577 1197 1197 l22 101 0 4280 0 4280
-22 101 c-92 413 -316 747 -653 971 -150 100 -338 179 -538 225 l-97 23 -4250
1 c-2337 0 -4266 -1 -4285 -3z m4323 -647 c25 -7 59 -23 76 -35 23 -16 1161
-1332 1561 -1804 19 -23 616 -718 1325 -1545 710 -828 1303 -1521 1318 -1540
61 -79 57 53 55 -2167 -3 -1873 -4 -2033 -20 -2067 -25 -56 -93 -123 -148
-147 l-49 -21 -4194 0 c-3157 0 -4202 3 -4228 11 -78 27 -143 92 -171 173 -16
48 -17 169 -18 2071 0 1289 4 2033 10 2055 5 20 22 54 37 77 45 67 4171 4870
4208 4899 66 50 155 65 238 40z"/>
<path d="M5338 9369 c-761 -888 -1628 -1899 -1926 -2246 l-542 -633 0 -1795 0
-1795 1195 0 1195 0 0 1850 c0 1252 3 1865 10 1898 6 27 25 69 43 94 18 25
589 695 1270 1488 681 793 1240 1447 1243 1453 3 10 -997 1191 -1080 1276
l-24 23 -1384 -1613z"/>
<path d="M7008 7874 l-1188 -1386 0 -1794 0 -1794 315 0 315 0 0 1471 0 1471
-49 44 c-125 112 -182 287 -148 450 20 95 58 166 125 236 92 97 176 136 312
147 l85 6 897 1045 c493 575 897 1050 897 1055 0 10 -355 429 -367 432 -4 1
-541 -621 -1194 -1383z"/>
<path d="M8673 8088 c-148 -172 -542 -631 -875 -1019 l-606 -706 10 -54 c27
-146 -47 -340 -166 -435 l-36 -29 0 -1472 0 -1473 315 0 315 0 2 1533 3 1532
21 45 c13 26 358 436 834 990 446 520 814 951 817 957 4 10 -186 242 -357 436
-5 5 -129 -132 -277 -305z"/>
<path d="M8931 6665 l-741 -865 0 -1450 0 -1450 1195 0 1195 0 0 1795 0 1795
-446 520 c-245 286 -449 520 -453 520 -5 0 -342 -389 -750 -865z"/>
<path d="M6656 6435 c-123 -44 -174 -201 -99 -308 41 -60 94 -87 168 -87 189
0 276 227 135 354 -59 53 -129 68 -204 41z"/>
</g>
</svg>
