<?xml version="1.0" encoding="UTF-8" standalone="no"?>
<!-- Created with Inkscape (http://www.inkscape.org/) -->

<svg
   xmlns:dc="http://purl.org/dc/elements/1.1/"
   xmlns:cc="http://creativecommons.org/ns#"
   xmlns:rdf="http://www.w3.org/1999/02/22-rdf-syntax-ns#"
   xmlns:svg="http://www.w3.org/2000/svg"
   xmlns="http://www.w3.org/2000/svg"
   xmlns:sodipodi="http://sodipodi.sourceforge.net/DTD/sodipodi-0.dtd"
   xmlns:inkscape="http://www.inkscape.org/namespaces/inkscape"
   width="900"
   height="900"
   viewBox="0 0 900.00002 900.00002"
   id="svg2"
   version="1.1"
   inkscape:version="0.91 r13725"
   inkscape:export-filename="/home/michael/nate-homejs-windows.png"
   inkscape:export-xdpi="124.255"
   inkscape:export-ydpi="124.255"
   sodipodi:docname="homejs-agnostic.svg">
  <defs
     id="defs4" />
  <sodipodi:namedview
     id="base"
     pagecolor="#ffffff"
     bordercolor="#666666"
     borderopacity="1.0"
     inkscape:pageopacity="0"
     inkscape:pageshadow="2"
     inkscape:zoom="0.5"
     inkscape:cx="496.72324"
     inkscape:cy="482.39531"
     inkscape:document-units="px"
     inkscape:current-layer="g10176"
     showgrid="false"
     inkscape:snap-bbox="true"
     inkscape:object-paths="false"
     inkscape:snap-intersection-paths="false"
     inkscape:object-nodes="false"
     inkscape:snap-smooth-nodes="false"
     inkscape:snap-midpoints="false"
     inkscape:snap-bbox-midpoints="false"
     inkscape:snap-bbox-edge-midpoints="true"
     inkscape:bbox-nodes="true"
     inkscape:bbox-paths="true"
     inkscape:snap-object-midpoints="true"
     inkscape:snap-others="false"
     inkscape:snap-grids="true"
     units="px"
     inkscape:snap-center="false"
     inkscape:snap-nodes="true"
     inkscape:snap-page="true"
     inkscape:window-width="1920"
     inkscape:window-height="1004"
     inkscape:window-x="0"
     inkscape:window-y="468"
     inkscape:window-maximized="1"
     inkscape:snap-global="true" />
  <metadata
     id="metadata7">
    <rdf:RDF>
      <cc:Work
         rdf:about="">
        <dc:format>image/svg+xml</dc:format>
        <dc:type
           rdf:resource="http://purl.org/dc/dcmitype/StillImage" />
        <dc:title></dc:title>
      </cc:Work>
    </rdf:RDF>
  </metadata>
  <g
     transform="translate(0,-152.36202)"
     id="g10176"
     inkscape:groupmode="layer"
     inkscape:label="Layer 1"
     style="display:inline">
    <path
       d="M 470.53125 94.513672 L 469.49609 94.548828 C 468.09519 94.596928 466.70324 94.785758 465.33984 95.111328 C 464.65914 95.273848 463.98727 95.469619 463.32617 95.699219 C 461.33827 96.390169 459.46443 97.37737 457.76953 98.625 C 457.20613 99.03966 456.66383 99.482412 456.14453 99.951172 C 455.55593 100.48311 454.99736 101.04749 454.47266 101.64258 L 455.22266 102.30469 L 454.46289 101.6543 L 154.88477 450.67773 L 155.63672 451.32422 L 154.875 450.6875 C 153.9761 451.7661 153.13014 453.00559 152.46094 454.24609 C 152.12584 454.86769 151.81322 455.53519 151.54492 456.17969 L 151.5332 456.20703 L 151.52344 456.23633 C 150.77544 458.38423 150.24327 460.17806 150.04297 462.28516 C 149.97497 462.99876 149.95403 463.78882 149.95703 464.47852 L 149.95703 464.48828 L 149.95703 751.56445 C 149.95803 763.15016 159.37143 772.56336 170.95703 772.56445 L 769.89453 772.56445 C 781.48013 772.56345 790.89343 763.15006 790.89453 751.56445 L 790.89453 464.50195 C 790.89463 464.49195 790.89443 464.48942 790.89453 464.48242 C 790.90653 463.78933 790.88413 463.09444 790.82812 462.40234 C 790.77112 461.70504 790.67953 461.01046 790.55273 460.32227 C 790.42633 459.63367 790.26481 458.9518 790.07031 458.2793 C 789.87591 457.6066 789.64732 456.94287 789.38672 456.29297 C 789.12602 455.64367 788.83387 455.00867 788.50977 454.38867 C 788.18537 453.76767 787.83011 453.16362 787.44531 452.57812 C 787.06091 451.99323 786.64793 451.42837 786.20703 450.88477 C 786.14803 450.81277 786.0894 450.74152 786.0293 450.66992 L 486.3457 101.66016 L 486.3457 101.6543 C 485.8826 101.13012 485.39201 100.62966 484.87891 100.1543 C 484.36581 99.677977 483.82958 99.227418 483.27148 98.804688 C 482.15378 97.959008 480.95491 97.225861 479.69141 96.619141 C 479.06011 96.316331 478.41426 96.046864 477.75586 95.808594 C 476.43866 95.331404 475.07721 94.9873 473.69141 94.78125 C 472.99881 94.67815 472.30116 94.609652 471.60156 94.576172 L 471.55469 95.574219 L 471.59766 94.574219 C 470.92346 94.544719 471.29749 94.562062 470.58789 94.539062 L 470.5625 94.539062 L 470.54492 94.539062 L 470.54492 94.527344 L 470.53125 94.513672 z M 470.36719 141.15039 A 5.0005 5.0005 0 0 1 470.56836 141.1543 A 5.0005 5.0005 0 0 1 470.86914 141.15234 A 5.0005 5.0005 0 0 1 471.36719 141.20117 A 5.0005 5.0005 0 0 1 471.85742 141.29883 A 5.0005 5.0005 0 0 1 472.33594 141.44531 A 5.0005 5.0005 0 0 1 472.79688 141.64062 A 5.0005 5.0005 0 0 1 474.03125 142.48047 A 5.0005 5.0005 0 0 1 474.38086 142.83789 L 554.91992 236.73828 A 5.0005 5.0005 0 0 1 556.07422 239.91211 A 5.0005 5.0005 0 0 1 555.48242 242.41797 A 5.0005 5.0005 0 0 1 554.92383 243.24609 L 373.6875 454.84375 A 5.0005 5.0005 0 0 1 373.64258 454.89258 A 5.0005 5.0005 0 0 1 373.61523 454.92578 C 372.86562 455.76306 372.22111 456.788 371.9668 457.22461 C 370.95647 458.95886 370.30403 460.87832 370.04883 462.86914 C 369.97679 463.4317 369.93769 463.99785 369.92969 464.56445 L 369.92969 731.61523 L 369.85352 731.61523 A 5.0005 5.0005 0 0 1 369.79883 732.39453 A 5.0005 5.0005 0 0 1 369.54492 733.36133 A 5.0005 5.0005 0 0 1 369.34766 733.82031 A 5.0005 5.0005 0 0 1 368.82031 734.66797 A 5.0005 5.0005 0 0 1 368.49609 735.04688 A 5.0005 5.0005 0 0 1 367.74023 735.70117 A 5.0005 5.0005 0 0 1 365.92188 736.5 A 5.0005 5.0005 0 0 1 365.42773 736.58203 A 5.0005 5.0005 0 0 1 364.92969 736.61523 L 191.13281 736.61523 A 5.0005 5.0005 0 0 1 190.56836 736.57422 A 5.0005 5.0005 0 0 1 190.07617 736.48633 A 5.0005 5.0005 0 0 1 189.13086 736.16602 A 5.0005 5.0005 0 0 1 187.87891 735.34961 A 5.0005 5.0005 0 0 1 187.74023 735.21289 A 5.0005 5.0005 0 0 1 187.62109 735.0957 A 5.0005 5.0005 0 0 1 187.52148 734.99805 A 5.0005 5.0005 0 0 1 187.48438 734.95312 A 5.0005 5.0005 0 0 1 186.7793 734.00391 A 5.0005 5.0005 0 0 1 186.37695 733.08984 A 5.0005 5.0005 0 0 1 186.16406 732.11328 A 5.0005 5.0005 0 0 1 186.13281 731.61523 L 186.13281 471.9375 A 5.0005 5.0005 0 0 1 186.17383 471.37305 A 5.0005 5.0005 0 0 1 186.47266 470.21094 A 5.0005 5.0005 0 0 1 186.5625 469.96094 A 5.0005 5.0005 0 0 1 186.77734 469.50977 A 5.0005 5.0005 0 0 1 187.33789 468.68359 L 466.78906 142.83789 A 5.0005 5.0005 0 0 1 467.1875 142.43555 A 5.0005 5.0005 0 0 1 467.57617 142.11914 A 5.0005 5.0005 0 0 1 468.89844 141.42383 A 5.0005 5.0005 0 0 1 469.37695 141.2832 A 5.0005 5.0005 0 0 1 470.36719 141.15039 z M 577.25586 265.76953 A 5.0005 5.0005 0 0 1 577.45703 265.77344 A 5.0005 5.0005 0 0 1 577.75781 265.77148 A 5.0005 5.0005 0 0 1 578.25586 265.82031 A 5.0005 5.0005 0 0 1 578.74609 265.91797 A 5.0005 5.0005 0 0 1 579.22461 266.06641 A 5.0005 5.0005 0 0 1 579.68555 266.25977 A 5.0005 5.0005 0 0 1 580.91992 267.09961 A 5.0005 5.0005 0 0 1 581.26953 267.45703 L 608.50977 299.2168 A 5.0005 5.0005 0 0 1 608.5625 299.2832 A 5.0005 5.0005 0 0 1 608.50977 305.72656 L 478.48242 457.39648 A 5.0005 5.0005 0 0 1 473.64453 459.73438 C 472.64426 459.63157 471.62943 459.58008 470.60156 459.58008 C 454.15576 459.58008 440.64844 473.08739 440.64844 489.5332 C 440.64844 497.75611 444.01824 505.21941 449.4668 510.66797 C 450.14791 511.34907 450.86088 511.99746 451.60352 512.61133 C 451.97491 512.91832 452.35266 513.21677 452.73828 513.50586 C 452.93121 513.65049 453.12608 513.79369 453.32227 513.93359 A 5.0005 5.0005 0 0 1 453.32617 513.93555 C 453.3718 513.96815 453.4183 514.00106 453.4668 514.03516 A 5.0005 5.0005 0 0 1 455.5918 518.95117 L 455.60156 731.61328 A 5.0005 5.0005 0 0 1 455.59961 731.68164 A 5.0005 5.0005 0 0 1 455.5625 732.17969 A 5.0005 5.0005 0 0 1 455.15234 733.61719 A 5.0005 5.0005 0 0 1 454.92188 734.06055 A 5.0005 5.0005 0 0 1 454.21289 734.99414 A 5.0005 5.0005 0 0 1 454.16797 735.04688 A 5.0005 5.0005 0 0 1 454.05273 735.1582 A 5.0005 5.0005 0 0 1 453.98633 735.22461 A 5.0005 5.0005 0 0 1 453.95508 735.25 A 5.0005 5.0005 0 0 1 453.41211 735.70117 A 5.0005 5.0005 0 0 1 451.59375 736.5 A 5.0005 5.0005 0 0 1 451.09961 736.58203 A 5.0005 5.0005 0 0 1 450.60156 736.61523 L 405.72656 736.61523 A 5.0005 5.0005 0 0 1 399.92969 731.61523 L 399.92969 471.89453 A 5.0005 5.0005 0 0 1 401.60547 468.0918 L 573.67969 267.45703 A 5.0005 5.0005 0 0 1 574.07617 267.05469 A 5.0005 5.0005 0 0 1 574.46484 266.74023 A 5.0005 5.0005 0 0 1 575.78711 266.04297 A 5.0005 5.0005 0 0 1 576.26758 265.90234 A 5.0005 5.0005 0 0 1 577.25586 265.76953 z M 630.8457 328.24805 A 5.0005 5.0005 0 0 1 631.04688 328.25195 A 5.0005 5.0005 0 0 1 631.34766 328.25 A 5.0005 5.0005 0 0 1 631.8457 328.29883 A 5.0005 5.0005 0 0 1 632.33594 328.39648 A 5.0005 5.0005 0 0 1 632.8125 328.54297 A 5.0005 5.0005 0 0 1 633.27344 328.73633 A 5.0005 5.0005 0 0 1 634.50977 329.57812 A 5.0005 5.0005 0 0 1 634.85938 329.93555 L 662.06445 361.65625 A 5.0005 5.0005 0 0 1 663.21875 364.82812 A 5.0005 5.0005 0 0 1 662.62695 367.33398 A 5.0005 5.0005 0 0 1 662.06836 368.16211 L 545.16797 504.74609 C 544.85406 505.15772 544.58465 505.48822 544.39453 505.75195 C 544.10626 506.15186 543.73285 506.75198 543.65625 506.88281 A 5.0005 5.0005 0 0 1 543.65234 506.88867 L 543.65039 506.89062 C 542.5983 508.69725 541.71279 511.08022 541.49023 512.81641 C 541.41819 513.37891 541.37909 513.94508 541.37109 514.51172 L 541.37109 731.61523 A 5.0005 5.0005 0 0 1 541.24219 732.67188 A 5.0005 5.0005 0 0 1 541.10547 733.15234 A 5.0005 5.0005 0 0 1 540.92188 733.61719 A 5.0005 5.0005 0 0 1 540.69141 734.06055 A 5.0005 5.0005 0 0 1 539.99219 734.98242 A 5.0005 5.0005 0 0 1 539.9375 735.04688 A 5.0005 5.0005 0 0 1 539.81641 735.16211 A 5.0005 5.0005 0 0 1 539.75586 735.22461 A 5.0005 5.0005 0 0 1 539.72461 735.25195 A 5.0005 5.0005 0 0 1 539.18164 735.70117 A 5.0005 5.0005 0 0 1 537.36328 736.5 A 5.0005 5.0005 0 0 1 536.86914 736.58203 A 5.0005 5.0005 0 0 1 536.37109 736.61523 L 490.60156 736.61523 A 5.0005 5.0005 0 0 1 490.03711 736.57422 A 5.0005 5.0005 0 0 1 489.54492 736.48633 A 5.0005 5.0005 0 0 1 488.59961 736.16602 A 5.0005 5.0005 0 0 1 487.34766 735.34961 A 5.0005 5.0005 0 0 1 487.20703 735.21094 A 5.0005 5.0005 0 0 1 487.08008 735.08789 A 5.0005 5.0005 0 0 1 486.99023 734.99805 A 5.0005 5.0005 0 0 1 486.96094 734.96094 A 5.0005 5.0005 0 0 1 486.82227 734.81836 A 5.0005 5.0005 0 0 1 486.02344 733.55664 A 5.0005 5.0005 0 0 1 485.63281 732.11328 A 5.0005 5.0005 0 0 1 485.60156 731.61328 L 485.61133 518.85352 A 5.0005 5.0005 0 0 1 487.73438 514.03711 C 487.78295 514.00289 487.83216 513.96829 487.88086 513.93359 C 488.07715 513.79361 488.27197 513.65045 488.46484 513.50586 C 488.85046 513.21677 489.22826 512.91829 489.59961 512.61133 C 490.34224 511.99747 491.05524 511.34905 491.73633 510.66797 C 497.18489 505.21941 500.55469 497.75611 500.55469 489.5332 C 500.55469 487.47747 500.34398 485.47341 499.94336 483.53516 C 499.84319 483.05054 499.73101 482.56971 499.60742 482.09375 A 5.0005 5.0005 0 0 1 501.15625 476.99414 L 627.26758 329.93555 A 5.0005 5.0005 0 0 1 627.66602 329.5332 A 5.0005 5.0005 0 0 1 628.05273 329.2168 A 5.0005 5.0005 0 0 1 628.91211 328.70898 A 5.0005 5.0005 0 0 1 629.375 328.52148 A 5.0005 5.0005 0 0 1 630.34766 328.28906 A 5.0005 5.0005 0 0 1 630.8457 328.24805 z M 684.40039 390.6875 A 5.0005 5.0005 0 0 1 684.56641 390.68945 A 5.0005 5.0005 0 0 1 684.9043 390.68945 A 5.0005 5.0005 0 0 1 685.40039 390.73828 A 5.0005 5.0005 0 0 1 685.89062 390.83594 A 5.0005 5.0005 0 0 1 686.36914 390.98242 A 5.0005 5.0005 0 0 1 686.83008 391.17578 A 5.0005 5.0005 0 0 1 688.06445 392.01758 A 5.0005 5.0005 0 0 1 688.41406 392.375 L 753.86523 468.68359 A 5.0005 5.0005 0 0 1 754.73828 470.23242 A 5.0005 5.0005 0 0 1 754.82617 470.46484 A 5.0005 5.0005 0 0 1 755.07031 471.93945 L 755.07031 731.61523 A 5.0005 5.0005 0 0 1 754.94141 732.67188 A 5.0005 5.0005 0 0 1 754.80469 733.15234 A 5.0005 5.0005 0 0 1 754.39062 734.06055 A 5.0005 5.0005 0 0 1 754.11914 734.47852 A 5.0005 5.0005 0 0 1 753.80469 734.86914 A 5.0005 5.0005 0 0 1 753.68164 734.99414 A 5.0005 5.0005 0 0 1 753.63672 735.04688 A 5.0005 5.0005 0 0 1 753.52148 735.1582 A 5.0005 5.0005 0 0 1 753.42383 735.25195 A 5.0005 5.0005 0 0 1 752.88086 735.70117 A 5.0005 5.0005 0 0 1 751.0625 736.5 A 5.0005 5.0005 0 0 1 750.56836 736.58203 A 5.0005 5.0005 0 0 1 750.07031 736.61523 L 576.37109 736.61523 A 5.0005 5.0005 0 0 1 575.80664 736.57422 A 5.0005 5.0005 0 0 1 575.31445 736.48633 A 5.0005 5.0005 0 0 1 574.36914 736.16602 A 5.0005 5.0005 0 0 1 573.11719 735.34961 A 5.0005 5.0005 0 0 1 572.97656 735.21094 A 5.0005 5.0005 0 0 1 572.84961 735.08789 A 5.0005 5.0005 0 0 1 572.75977 734.99805 A 5.0005 5.0005 0 0 1 572.73047 734.96094 A 5.0005 5.0005 0 0 1 572.5918 734.81836 A 5.0005 5.0005 0 0 1 571.79297 733.55664 A 5.0005 5.0005 0 0 1 571.40234 732.11328 A 5.0005 5.0005 0 0 1 571.37109 731.61523 L 571.37109 521.84375 A 5.0005 5.0005 0 0 1 571.41211 521.2793 A 5.0005 5.0005 0 0 1 571.5 520.78711 A 5.0005 5.0005 0 0 1 571.63672 520.30664 A 5.0005 5.0005 0 0 1 571.71094 520.11719 A 5.0005 5.0005 0 0 1 571.80078 519.86719 A 5.0005 5.0005 0 0 1 572.01562 519.41602 A 5.0005 5.0005 0 0 1 572.57617 518.58984 L 680.82422 392.375 A 5.0005 5.0005 0 0 1 681.22266 391.97266 A 5.0005 5.0005 0 0 1 681.60938 391.65625 A 5.0005 5.0005 0 0 1 682.93164 390.96094 A 5.0005 5.0005 0 0 1 683.41211 390.82031 A 5.0005 5.0005 0 0 1 684.40039 390.6875 z M 470.60156 479.58008 C 476.36107 479.58008 480.55469 483.77369 480.55469 489.5332 C 480.55469 495.2927 476.36107 499.48633 470.60156 499.48633 C 464.84207 499.48633 460.64844 495.2927 460.64844 489.5332 C 460.64844 483.77369 464.84207 479.58008 470.60156 479.58008 z "
       transform="translate(0,152.36202)"
       id="path22254" />
  </g>
</svg>
