<?xml version="1.0" standalone="no"?>
<!DOCTYPE svg PUBLIC "-//W3C//DTD SVG 20010904//EN"
 "http://www.w3.org/TR/2001/REC-SVG-20010904/DTD/svg10.dtd">
<svg version="1.0" xmlns="http://www.w3.org/2000/svg"
 width="1142.000000pt" height="1142.000000pt" viewBox="0 0 1142.000000 1142.000000"
 preserveAspectRatio="xMidYMid meet">
<metadata>
Created by potrace 1.11, written by Peter Selinger 2001-2013
</metadata>
<g transform="translate(0.000000,1142.000000) scale(0.100000,-0.100000)"
fill="#000000" stroke="none">
<path d="M1515 10455 c-249 -55 -444 -231 -532 -480 l-28 -80 0 -4185 0 -4185
28 -80 c78 -223 239 -384 462 -462 l80 -28 4185 0 4185 0 80 28 c223 78 384
239 462 462 l28 80 0 4185 0 4185 -28 80 c-40 114 -100 209 -182 290 -86 84
-155 127 -272 169 l-88 31 -4160 2 c-3421 1 -4171 -1 -4220 -12z m4322 -989
c36 -20 537 -515 1840 -1819 1676 -1677 1792 -1795 1807 -1842 15 -46 16 -216
14 -1870 -3 -1752 -4 -1821 -22 -1855 -26 -49 -84 -108 -131 -133 l-40 -22
-3595 0 -3595 0 -40 22 c-47 25 -105 84 -131 133 -18 34 -19 103 -22 1855 -2
1654 -1 1824 14 1870 15 47 131 165 1803 1838 982 983 1801 1797 1820 1809 89
56 191 61 278 14z"/>
<path d="M4277 7412 c-785 -785 -1427 -1430 -1427 -1435 0 -4 388 -7 863 -7
819 0 864 -1 903 -19 51 -23 104 -75 130 -127 14 -28 19 -60 19 -114 0 -54 -5
-86 -19 -114 -26 -52 -79 -104 -130 -127 -39 -18 -89 -19 -1093 -19 l-1053 0
0 -1492 0 -1493 960 0 960 0 2 1220 3 1220 30 51 c40 69 1265 1266 1338 1309
45 26 62 30 122 30 119 -1 203 -55 253 -164 21 -45 24 -64 20 -120 -3 -39 -14
-83 -26 -108 -14 -27 -218 -233 -607 -613 l-585 -573 0 -1126 0 -1126 2005 0
2005 0 0 1492 0 1493 -1308 2 -1309 3 -48 30 c-176 109 -176 341 0 450 l48 30
1126 3 1126 2 -1435 1435 c-789 789 -1437 1435 -1440 1435 -3 0 -647 -642
-1433 -1428z"/>
</g>
</svg>
